<svg xmlns="http://www.w3.org/2000/svg" viewBox="0 0 292.29 336.89"><defs><style>.cls-1{font-size:22.55px;font-family:Gabriola;}.cls-1,.cls-5,.cls-6{fill:#4a474f;}.cls-2{font-size:30.07px;fill:#be2026;font-family:Elephant-Regular, Elephant;}.cls-3,.cls-4{font-size:60.14px;}.cls-4{fill:#1b9446;}.cls-6,.cls-7,.cls-9{stroke:#4a474f;stroke-miterlimit:10;}.cls-6{stroke-width:3.53px;}.cls-7{fill:none;stroke-width:4.71px;}.cls-8{fill:#ffde17;}.cls-9{fill:#fff;stroke-width:2.09px;}</style></defs><g id="text"><text class="cls-1" transform="translate(43.23 296.32) rotate(-90)">Christmas Collectibles</text><text class="cls-2" transform="translate(72.43 164.62)">The<tspan class="cls-3"><tspan x="0" y="54.12">Village</tspan></tspan><tspan class="cls-4"><tspan x="0" y="108.25">Keeper</tspan></tspan></text></g><g id="key_bottom" data-name="key bottom"><rect class="cls-5" x="62.09" y="286.45" width="21.64" height="10.82"/><rect class="cls-5" x="62.63" y="315.96" width="19.6" height="10.82"/><rect class="cls-5" x="62.55" y="287.2" width="9.88" height="30.27"/></g><g id="key_middle" data-name="key middle"><path class="cls-5" d="M218,296.57V505.78s-7.38,8.29-13.13,0l-1.77-209.21Z" transform="translate(-154.87 -172.57)"/></g><g id="key_top" data-name="key top"><rect class="cls-6" x="47.91" y="85.75" width="16.78" height="32.57"/><path class="cls-5" d="M188.88,281.25s-.51,11-20.32,14.78a26.34,26.34,0,0,1-6.35.51c-8.75-.51-8.2-13.7.58-13.7h1.57a6.88,6.88,0,0,1,5.63,2.79c2,2.79,5.95,4.93,11.46-8.78" transform="translate(-154.87 -172.57)"/><path class="cls-5" d="M232.71,281.25s.5,11,20.32,14.78a26.27,26.27,0,0,0,6.34.51c8.76-.51,8.2-13.7-.57-13.7h-1.57a6.88,6.88,0,0,0-5.63,2.79c-2,2.79-5.95,4.93-11.46-8.78" transform="translate(-154.87 -172.57)"/><circle class="cls-7" cx="55.12" cy="84.66" r="33.66"/><path class="cls-5" d="M188.48,289.65s19.5,15.57,44.23,0l-5.59-8.89H192.93Z" transform="translate(-154.87 -172.57)"/><path class="cls-5" d="M191.18,300.51s17.25,13.78,39.13,0l-4.94-7.87H195.11Z" transform="translate(-154.87 -172.57)"/></g><g id="house"><polygon class="cls-5" points="70.77 0.81 70.77 3.19 72.81 3.19 71.79 9.21 82.76 18.02 82.76 3.45 85.6 3.45 84.57 0.81 70.77 0.81"/><path class="cls-5" d="M163.85,232.9l4.74,37.24s36.12-8.18,81.71,0l5.92-42.59s14.81,6.77,9.77-5.36-43.07-42-50.54-42.6c0,0-2.45-3.38-12.81,0s-43.23,31.86-46.19,44.56S163.85,232.9,163.85,232.9Z" transform="translate(-154.87 -172.57)"/></g><g id="windows"><rect class="cls-8" x="48.17" y="75.44" width="7.15" height="7.15" rx="1"/><rect class="cls-8" x="48.17" y="84.57" width="7.15" height="7.15" rx="1"/><rect class="cls-8" x="57.54" y="84.57" width="7.15" height="7.15" rx="1"/><rect class="cls-8" x="57.54" y="75.44" width="7.15" height="7.15" rx="1"/><rect class="cls-8" x="224.25" y="228.67" width="4.66" height="5.54" rx="1" transform="translate(-159.73 285.44) rotate(-90)"/><rect class="cls-8" x="231.54" y="228.67" width="4.66" height="5.54" rx="1" transform="translate(-152.43 292.73) rotate(-90)"/><rect class="cls-8" x="231.54" y="222.14" width="4.66" height="5.54" rx="1" transform="translate(-145.9 286.21) rotate(-90)"/><rect class="cls-8" x="224.25" y="222.04" width="4.66" height="5.54" rx="1" transform="translate(-153.1 278.82) rotate(-90)"/><rect class="cls-8" x="185.71" y="228.67" width="4.66" height="5.54" rx="1" transform="translate(-198.27 246.9) rotate(-90)"/><rect class="cls-8" x="193" y="228.67" width="4.66" height="5.54" rx="1" transform="translate(-190.98 254.19) rotate(-90)"/><rect class="cls-8" x="193" y="222.14" width="4.66" height="5.54" rx="1" transform="translate(-184.45 247.66) rotate(-90)"/><rect class="cls-8" x="185.71" y="222.04" width="4.66" height="5.54" rx="1" transform="translate(-191.65 240.28) rotate(-90)"/><path class="cls-8" d="M203.7,246.5h15.56a.52.52,0,0,0,.41-.86c-2.11-2.51-8.91-9.06-16.38,0A.52.52,0,0,0,203.7,246.5Z" transform="translate(-154.87 -172.57)"/></g><g id="window_spokes" data-name="window spokes"><rect class="cls-5" x="208.19" y="240.03" width="0.75" height="7.42" transform="translate(-261.65 12.24) rotate(-38.86)"/><rect class="cls-5" x="213.42" y="240.03" width="0.75" height="7.42" transform="translate(72.45 395.11) rotate(-141.14)"/></g><g id="snowy_roof" data-name="snowy roof"><path class="cls-9" d="M158.1,219.55s-7.75,17.41,6,14.82,10.63-14.82,10.63-14.82S184,223,188,212.37c0,0,11.07.47,10.85-9.06,0,0,13.34-3.53,11.65-14.23,0,0,1.63,14.58,12.7,12.7,0,0,4.65,13.44,12.73,10.07,0,0,.88,9.7,9.52,7.58,0,0,3.21,10.82,10.51,8.7,0,0,16.27,8.24,9.41-6.35s-34.53-37.09-34.53-37.09-13.62-14.2-25.9-10.43-26.24,19.52-26.24,19.52S158.54,215.9,158.1,219.55Z" transform="translate(-154.87 -172.57)"/></g></svg>